<svg width="99" height="33" viewBox="0 0 99 33" fill="none" xmlns="http://www.w3.org/2000/svg">
<path d="M41.9371 16.9773C41.9371 21.6185 38.3063 25.0386 33.8504 25.0386C29.3945 25.0386 25.7637 21.6185 25.7637 16.9773C25.7637 12.3033 29.3945 8.91602 33.8504 8.91602C38.3063 8.91602 41.9371 12.3033 41.9371 16.9773ZM38.3971 16.9773C38.3971 14.077 36.2928 12.0925 33.8504 12.0925C31.408 12.0925 29.3037 14.077 29.3037 16.9773C29.3037 19.8485 31.408 21.862 33.8504 21.862C36.2928 21.862 38.3971 19.8449 38.3971 16.9773Z" fill="#B3B7BC"/>
<path d="M59.3844 16.9773C59.3844 21.6185 55.7535 25.0386 51.2977 25.0386C46.8418 25.0386 43.2109 21.6185 43.2109 16.9773C43.2109 12.307 46.8418 8.91602 51.2977 8.91602C55.7535 8.91602 59.3844 12.3033 59.3844 16.9773ZM55.8444 16.9773C55.8444 14.077 53.74 12.0925 51.2977 12.0925C48.8553 12.0925 46.7509 14.077 46.7509 16.9773C46.7509 19.8485 48.8553 21.862 51.2977 21.862C53.74 21.862 55.8444 19.8449 55.8444 16.9773Z" fill="#B3B7BC"/>
<path d="M76.1022 9.40304V23.8755C76.1022 29.8288 72.5913 32.2603 68.4408 32.2603C64.5337 32.2603 62.1822 29.6471 61.2954 27.51L64.3774 26.227C64.9262 27.5391 66.271 29.0874 68.4371 29.0874C71.0939 29.0874 72.7403 27.4482 72.7403 24.3625V23.2031H72.6168C71.8245 24.1808 70.298 25.0349 68.3717 25.0349C64.3411 25.0349 60.6484 21.524 60.6484 17.0064C60.6484 12.456 64.3411 8.91602 68.3717 8.91602C70.2943 8.91602 71.8208 9.77012 72.6168 10.7187H72.7403V9.40667H76.1022V9.40304ZM72.9911 17.0064C72.9911 14.1678 71.0976 12.0926 68.6879 12.0926C66.2455 12.0926 64.1993 14.1678 64.1993 17.0064C64.1993 19.8158 66.2455 21.862 68.6879 21.862C71.0976 21.862 72.9911 19.8158 72.9911 17.0064Z" fill="#B3B7BC"/>
<path d="M81.6442 0.919922V24.544H78.1914V0.919922H81.6442Z" fill="#B3B7BC"/>
<path d="M95.1011 19.6302L97.8488 21.462C96.962 22.774 94.8249 25.0347 91.1323 25.0347C86.5529 25.0347 83.1328 21.4947 83.1328 16.9734C83.1328 12.1795 86.5819 8.91211 90.7361 8.91211C94.9194 8.91211 96.9656 12.2413 97.6344 14.0404L98.0015 14.9562L87.2252 19.4194C88.0503 21.0367 89.3332 21.8618 91.1323 21.8618C92.935 21.8618 94.1853 20.9749 95.1011 19.6302ZM86.6437 16.7299L93.8473 13.7387C93.4511 12.7319 92.259 12.0305 90.8561 12.0305C89.057 12.0305 86.5529 13.6188 86.6437 16.7299V16.7299Z" fill="#B3B7BC"/>
<path d="M12.6952 14.8796V11.4595H24.2202C24.3328 12.0556 24.391 12.7607 24.391 13.5239C24.391 16.0898 23.6895 19.2627 21.4289 21.5234C19.23 23.8131 16.4206 25.0343 12.6989 25.0343C5.80063 25.0343 0 19.4154 0 12.5171C0 5.6189 5.80063 0 12.6989 0C16.5151 0 19.2337 1.4974 21.2762 3.44912L18.8629 5.86241C17.3982 4.48858 15.4138 3.42004 12.6952 3.42004C7.65785 3.42004 3.71807 7.47976 3.71807 12.5171C3.71807 17.5545 7.65785 21.6142 12.6952 21.6142C15.9626 21.6142 17.8235 20.3022 19.0156 19.1101C19.9824 18.1433 20.6184 16.7622 20.8692 14.8759L12.6952 14.8796V14.8796Z" fill="#B3B7BC"/>
</svg>
