<svg width="138" height="26" viewBox="0 0 138 26" fill="none" xmlns="http://www.w3.org/2000/svg">
<path d="M120.641 0C120.145 0 119.742 0.402412 119.742 0.898618V7.20112H136.39L128.809 0.000581339L120.641 0Z" fill="#B3B7BC"/>
<path d="M137.001 9.10703C137.001 8.60966 136.601 8.20898 136.102 8.20898H129.801V24.8578L136.998 17.2728L137.001 9.10703Z" fill="#B3B7BC"/>
<path d="M127.891 25.4622C128.387 25.4622 128.789 25.0593 128.789 24.5619V18.2617H112.141L119.723 25.4611L127.891 25.4622Z" fill="#B3B7BC"/>
<path d="M111.531 16.3539C111.531 16.8507 111.934 17.2554 112.432 17.2554H118.731V0.605469L111.532 8.18814L111.531 16.3539Z" fill="#B3B7BC"/>
<path d="M35.2223 3.03863V10.7273H24.5107V3.03863L20.6094 3.03516V22.4215H24.5107V14.093H35.2223V22.4215H39.1301V3.03863H35.2223Z" fill="#B3B7BC"/>
<path d="M87.125 3.03906V22.4173H104.241L102.073 19.0058H91.0374V14.0935H101.724V10.8076H91.0374V6.37067H102.055L104.178 3.03906H87.125Z" fill="#B3B7BC"/>
<path d="M6.10796 3.03516C2.04971 3.03516 0 5.50231 0 9.09216V16.3286C0 20.483 2.64143 22.4226 6.08769 22.4226L18.3279 22.4215L16.0588 18.878H6.84387C4.88624 18.878 4.03337 18.1704 4.03337 15.9794V9.41408C4.03337 7.29607 4.75134 6.46983 6.89598 6.46983H16.1549L18.3337 3.03516H6.10796Z" fill="#B3B7BC"/>
<path d="M70.0017 3.03002C67.6579 3.03002 65.2556 4.43875 65.2556 8.06218V8.99321C65.2556 12.7707 67.567 14.2118 69.8795 14.2217H77.9966C78.8397 14.2217 79.5246 14.3618 79.5246 15.7867L79.5235 17.4328C79.502 18.713 78.8634 19.006 77.9677 19.006H67.2891L65.1016 22.4175H78.219C81.3821 22.4175 83.5296 20.8438 83.5296 17.2087V15.873C83.5296 12.3584 81.5344 10.6978 78.4407 10.6978H70.6901C69.8309 10.6978 69.2322 10.4633 69.2322 9.19065V7.85025C69.2322 6.76635 69.6427 6.37089 70.6438 6.37089L80.8135 6.36684L82.939 3.02539L70.0017 3.03002Z" fill="#B3B7BC"/>
<path d="M50.4652 3.03906L41.2734 22.4207H45.6177L47.408 18.4181H57.3965L59.181 22.4207H63.5444L54.3312 3.03906H50.4652ZM52.3927 7.06316L55.9246 15.1189H48.8833L52.3927 7.06316Z" fill="#B3B7BC"/>
</svg>
